<svg width="19" height="19" viewBox="0 0 19 19" fill="none" xmlns="http://www.w3.org/2000/svg">
<path d="M9.70459 18.74C7.13077 18.74 4.66237 17.7176 2.84241 15.8976C1.02244 14.0776 0 11.6092 0 9.03541C0 5.10338 2.25883 1.57794 5.75624 0.0557382C5.87951 0.0020178 6.01609 -0.0133307 6.1482 0.0116929C6.28031 0.0367165 6.40182 0.100952 6.4969 0.196029C6.59197 0.291105 6.65621 0.412615 6.68123 0.544725C6.70625 0.676835 6.69091 0.813419 6.63719 0.936681C6.23562 1.85862 6.02354 3.03948 6.02354 4.35044C6.02354 8.96346 9.77654 12.7165 14.3896 12.7165C15.7005 12.7165 16.8814 12.5044 17.8033 12.1028C17.9266 12.0491 18.0632 12.0337 18.1953 12.0588C18.3274 12.0838 18.4489 12.148 18.544 12.2431C18.639 12.3382 18.7033 12.4597 18.7283 12.5918C18.7533 12.7239 18.738 12.8605 18.6843 12.9838C17.1621 16.4812 13.6366 18.74 9.70459 18.74Z" fill="#F1CB9D"/>
</svg>
