<svg width="32" height="32" viewBox="0 0 32 32" fill="none" xmlns="http://www.w3.org/2000/svg">
<path d="M16 22C14.4092 21.9982 12.8841 21.3655 11.7593 20.2407C10.6345 19.1159 10.0018 17.5908 10 16C10 12.692 12.692 10 16 10C19.308 10 22 12.692 22 16C22 19.308 19.308 22 16 22Z" fill="#F9B35F"/>
<path fill-rule="evenodd" clip-rule="evenodd" d="M16 4C16.1768 4 16.3464 4.07024 16.4714 4.19526C16.5964 4.32029 16.6667 4.48986 16.6667 4.66667V7.33333C16.6667 7.51014 16.5964 7.67971 16.4714 7.80474C16.3464 7.92976 16.1768 8 16 8C15.8232 8 15.6536 7.92976 15.5286 7.80474C15.4036 7.67971 15.3333 7.51014 15.3333 7.33333V4.66667C15.3333 4.48986 15.4036 4.32029 15.5286 4.19526C15.6536 4.07024 15.8232 4 16 4ZM24 16C24 15.8232 24.0702 15.6536 24.1953 15.5286C24.3203 15.4036 24.4899 15.3333 24.6667 15.3333H27.3333C27.5101 15.3333 27.6797 15.4036 27.8047 15.5286C27.9298 15.6536 28 15.8232 28 16C28 16.1768 27.9298 16.3464 27.8047 16.4714C27.6797 16.5964 27.5101 16.6667 27.3333 16.6667H24.6667C24.4899 16.6667 24.3203 16.5964 24.1953 16.4714C24.0702 16.3464 24 16.1768 24 16ZM4 16C4 15.8232 4.07024 15.6536 4.19526 15.5286C4.32029 15.4036 4.48986 15.3333 4.66667 15.3333H7.33333C7.51014 15.3333 7.67971 15.4036 7.80474 15.5286C7.92976 15.6536 8 15.8232 8 16C8 16.1768 7.92976 16.3464 7.80474 16.4714C7.67971 16.5964 7.51014 16.6667 7.33333 16.6667H4.66667C4.48986 16.6667 4.32029 16.5964 4.19526 16.4714C4.07024 16.3464 4 16.1768 4 16ZM16 24C16.1768 24 16.3464 24.0702 16.4714 24.1953C16.5964 24.3203 16.6667 24.4899 16.6667 24.6667V27.3333C16.6667 27.5101 16.5964 27.6797 16.4714 27.8047C16.3464 27.9298 16.1768 28 16 28C15.8232 28 15.6536 27.9298 15.5286 27.8047C15.4036 27.6797 15.3333 27.5101 15.3333 27.3333V24.6667C15.3333 24.4899 15.4036 24.3203 15.5286 24.1953C15.6536 24.0702 15.8232 24 16 24ZM24.472 7.528C24.5341 7.58993 24.5833 7.6635 24.617 7.74449C24.6506 7.82548 24.6679 7.91231 24.6679 8C24.6679 8.08769 24.6506 8.17452 24.617 8.25551C24.5833 8.33651 24.5341 8.41007 24.472 8.472L22.472 10.472C22.3468 10.5972 22.177 10.6675 22 10.6675C21.823 10.6675 21.6532 10.5972 21.528 10.472C21.4028 10.3468 21.3325 10.177 21.3325 10C21.3325 9.82297 21.4028 9.65318 21.528 9.528L23.528 7.528C23.5899 7.46592 23.6635 7.41666 23.7445 7.38305C23.8255 7.34944 23.9123 7.33214 24 7.33214C24.0877 7.33214 24.1745 7.34944 24.2555 7.38305C24.3365 7.41666 24.4101 7.46592 24.472 7.528ZM10.472 21.528C10.5341 21.5899 10.5833 21.6635 10.617 21.7445C10.6506 21.8255 10.6679 21.9123 10.6679 22C10.6679 22.0877 10.6506 22.1745 10.617 22.2555C10.5833 22.3365 10.5341 22.4101 10.472 22.472L8.472 24.472C8.34682 24.5972 8.17703 24.6675 8 24.6675C7.82297 24.6675 7.65318 24.5972 7.528 24.472C7.40282 24.3468 7.33249 24.177 7.33249 24C7.33249 23.823 7.40282 23.6532 7.528 23.528L9.528 21.528C9.58993 21.4659 9.6635 21.4167 9.74449 21.383C9.82548 21.3494 9.91231 21.3321 10 21.3321C10.0877 21.3321 10.1745 21.3494 10.2555 21.383C10.3365 21.4167 10.4101 21.4659 10.472 21.528ZM7.528 7.528C7.58993 7.46592 7.6635 7.41666 7.74449 7.38305C7.82548 7.34944 7.91231 7.33214 8 7.33214C8.08769 7.33214 8.17452 7.34944 8.25551 7.38305C8.33651 7.41666 8.41007 7.46592 8.472 7.528L10.472 9.528C10.5972 9.65318 10.6675 9.82297 10.6675 10C10.6675 10.177 10.5972 10.3468 10.472 10.472C10.3468 10.5972 10.177 10.6675 10 10.6675C9.82297 10.6675 9.65318 10.5972 9.528 10.472L7.528 8.472C7.46592 8.41007 7.41666 8.33651 7.38305 8.25551C7.34944 8.17452 7.33214 8.08769 7.33214 8C7.33214 7.91231 7.34944 7.82548 7.38305 7.74449C7.41666 7.6635 7.46592 7.58993 7.528 7.528ZM21.528 21.528C21.5899 21.4659 21.6635 21.4167 21.7445 21.383C21.8255 21.3494 21.9123 21.3321 22 21.3321C22.0877 21.3321 22.1745 21.3494 22.2555 21.383C22.3365 21.4167 22.4101 21.4659 22.472 21.528L24.472 23.528C24.534 23.59 24.5832 23.6636 24.6167 23.7446C24.6502 23.8255 24.6675 23.9123 24.6675 24C24.6675 24.0877 24.6502 24.1745 24.6167 24.2554C24.5832 24.3364 24.534 24.41 24.472 24.472C24.41 24.534 24.3364 24.5832 24.2554 24.6167C24.1745 24.6502 24.0877 24.6675 24 24.6675C23.9123 24.6675 23.8255 24.6502 23.7446 24.6167C23.6636 24.5832 23.59 24.534 23.528 24.472L21.528 22.472C21.4659 22.4101 21.4167 22.3365 21.383 22.2555C21.3494 22.1745 21.3321 22.0877 21.3321 22C21.3321 21.9123 21.3494 21.8255 21.383 21.7445C21.4167 21.6635 21.4659 21.5899 21.528 21.528Z" fill="#F9B35F"/>
</svg>
